<?xml version="1.0" encoding="utf-8"?>
<!-- Generator: Adobe Illustrator 16.0.0, SVG Export Plug-In . SVG Version: 6.00 Build 0)  -->
<!DOCTYPE svg PUBLIC "-//W3C//DTD SVG 1.1//EN" "http://www.w3.org/Graphics/SVG/1.1/DTD/svg11.dtd">
<svg version="1.1" id="Layer_1" xmlns="http://www.w3.org/2000/svg" xmlns:xlink="http://www.w3.org/1999/xlink" x="0px" y="0px"
	 width="38.5px" height="26.4px" viewBox="0 0 38.5 26.4" style="enable-background:new 0 0 38.5 26.4;" xml:space="preserve">
<g>
	<path style="fill:#FFD050;" d="M35.1,19.9c-0.9,0-1.5-0.7-1.5-1.5c0-7.5-5.9-13.6-13.3-13.9h-1.1C11.6,4.8,5.7,10.9,5.7,18.4
		c0,0.9-0.7,1.5-1.5,1.5c-0.3,0-0.6,0.3-0.6,0.6V23c0,0.3,0.3,0.6,0.6,0.6h1.5l27.8,0h1.5v0c0.3,0,0.6-0.3,0.6-0.6v-2.5
		C35.7,20.2,35.4,19.9,35.1,19.9 M33.7,22.8H5.3V21h1.9v-2.7h2.9v-3.8l3.4-1.8v5.3h1.7v-1c0-0.9,0.3-1.6,1.2-1.6h0.7v-2.4
		c0-0.9,0-1.9,0.6-2.2c0,0,0.1,0,0.2,0c0-0.7,0.5-1.3,1.1-1.5V8.1c0-0.2,0.3-0.5,0.5-0.5c0.2,0,0.5,0.3,0.5,0.5v1.3
		c0.6,0.2,1,0.8,1,1.4c0.1,0,0.2,0,0.3,0.1c0.6,0.3,0.5,1.3,0.5,2.2v2.4c0.2,0,2.3,0,2.5,0v-3.1l4.9,2.4v4H32V21h1.7V22.8z"/>
	<rect x="16.9" y="1" style="fill:#E5E9EE;" width="5.4" height="2"/>
	<path style="fill:#FF9800;" d="M37.9,25.7H1c0-1.6,1.3-3,3-3h30.9C36.5,22.7,37.9,24,37.9,25.7"/>
</g>
</svg>
